REM DIRINDEX 1\2,1\3,1\4,1\5
REM DIRNAME "folder01","folder02","folder03","folder04","folder05"
TITLE ""
FILE "P1Q_j_1670-1683.mp3" MP3
  TRACK 01 AUDIO
    TITLE "3:cjc173_0210"
    INDEX 01 00:00:00
  TRACK 02 AUDIO
    TITLE "0:"
    INDEX 01 00:02:43
  TRACK 03 AUDIO
    TITLE "4:cjc173_0211"
    INDEX 01 00:02:60
  TRACK 04 AUDIO
    TITLE "0:"
    INDEX 01 00:04:57
  TRACK 05 AUDIO
    TITLE "5:cjc173_0212"
    INDEX 01 00:05:02
  TRACK 06 AUDIO
    TITLE "0:"
    INDEX 01 00:09:43
  TRACK 07 AUDIO
    TITLE "3:cjc173_0213"
    INDEX 01 00:10:13
  TRACK 08 AUDIO
    TITLE "0:"
    INDEX 01 00:11:45
  TRACK 09 AUDIO
    TITLE "4:cjc173_0214"
    INDEX 01 00:11:67
  TRACK 10 AUDIO
    TITLE "0:"
    INDEX 01 00:14:12
  TRACK 11 AUDIO
    TITLE "5:cjc173_0215"
    INDEX 01 00:14:32
  TRACK 12 AUDIO
    TITLE "0:"
    INDEX 01 00:19:57
  TRACK 13 AUDIO
    TITLE "3:cjc173_0216"
    INDEX 01 00:20:27
  TRACK 14 AUDIO
    TITLE "0:"
    INDEX 01 00:21:54
  TRACK 15 AUDIO
    TITLE "4:cjc173_0217"
    INDEX 01 00:22:02
  TRACK 16 AUDIO
    TITLE "0:"
    INDEX 01 00:23:31
  TRACK 17 AUDIO
    TITLE "5:cjc173_0218"
    INDEX 01 00:23:51
  TRACK 18 AUDIO
    TITLE "0:"
    INDEX 01 00:28:69
  TRACK 19 AUDIO
    TITLE "3:cjc173_0219"
    INDEX 01 00:29:41
  TRACK 20 AUDIO
    TITLE "0:"
    INDEX 01 00:31:17
  TRACK 21 AUDIO
    TITLE "4:cjc173_0220"
    INDEX 01 00:31:38
  TRACK 22 AUDIO
    TITLE "0:"
    INDEX 01 00:35:09
  TRACK 23 AUDIO
    TITLE "5:cjc173_0221"
    INDEX 01 00:35:26
  TRACK 24 AUDIO
    TITLE "0:"
    INDEX 01 00:40:20
  TRACK 25 AUDIO
    TITLE "3:cjc173_0222"
    INDEX 01 00:40:65
  TRACK 26 AUDIO
    TITLE "0:"
    INDEX 01 00:42:44
  TRACK 27 AUDIO
    TITLE "4:cjc173_0223"
    INDEX 01 00:42:66
  TRACK 28 AUDIO
    TITLE "0:"
    INDEX 01 00:46:59
  TRACK 29 AUDIO
    TITLE "5:cjc173_0224"
    INDEX 01 00:47:04
  TRACK 30 AUDIO
    TITLE "0:"
    INDEX 01 00:51:47
  TRACK 31 AUDIO
    TITLE "3:cjc173_0225"
    INDEX 01 00:52:17
  TRACK 32 AUDIO
    TITLE "0:"
    INDEX 01 00:53:54
  TRACK 33 AUDIO
    TITLE "4:cjc173_0226"
    INDEX 01 00:54:02
  TRACK 34 AUDIO
    TITLE "0:"
    INDEX 01 00:56:50
  TRACK 35 AUDIO
    TITLE "5:cjc173_0227"
    INDEX 01 00:56:70
  TRACK 36 AUDIO
    TITLE "0:"
    INDEX 01 01:00:30
  TRACK 37 AUDIO
    TITLE "3:cjc173_0228"
    INDEX 01 01:00:75
  TRACK 38 AUDIO
    TITLE "0:"
    INDEX 01 01:02:39
  TRACK 39 AUDIO
    TITLE "4:cjc173_0229"
    INDEX 01 01:02:58
  TRACK 40 AUDIO
    TITLE "0:"
    INDEX 01 01:05:61
  TRACK 41 AUDIO
    TITLE "5:cjc173_0230"
    INDEX 01 01:06:05
  TRACK 42 AUDIO
    TITLE "0:"
    INDEX 01 01:12:39
  TRACK 43 AUDIO
    TITLE "3:cjc173_0231"
    INDEX 01 01:13:09
  TRACK 44 AUDIO
    TITLE "0:"
    INDEX 01 01:14:42
  TRACK 45 AUDIO
    TITLE "4:cjc173_0232"
    INDEX 01 01:14:64
  TRACK 46 AUDIO
    TITLE "0:"
    INDEX 01 01:19:20
  TRACK 47 AUDIO
    TITLE "5:cjc173_0233"
    INDEX 01 01:19:37
  TRACK 48 AUDIO
    TITLE "0:"
    INDEX 01 01:24:11
  TRACK 49 AUDIO
    TITLE "3:cjc173_0234"
    INDEX 01 01:24:56
  TRACK 50 AUDIO
    TITLE "0:"
    INDEX 01 01:26:08
  TRACK 51 AUDIO
    TITLE "4:cjc173_0235"
    INDEX 01 01:26:31
  TRACK 52 AUDIO
    TITLE "0:"
    INDEX 01 01:30:25
  TRACK 53 AUDIO
    TITLE "5:cjc173_0236"
    INDEX 01 01:30:45
  TRACK 54 AUDIO
    TITLE "0:"
    INDEX 01 01:33:59
  TRACK 55 AUDIO
    TITLE "3:cjc173_0237"
    INDEX 01 01:34:31
  TRACK 56 AUDIO
    TITLE "0:"
    INDEX 01 01:35:56
  TRACK 57 AUDIO
    TITLE "4:cjc173_0238"
    INDEX 01 01:36:02
  TRACK 58 AUDIO
    TITLE "0:"
    INDEX 01 01:41:45
  TRACK 59 AUDIO
    TITLE "5:cjc173_0239"
    INDEX 01 01:41:66
  TRACK 60 AUDIO
    TITLE "0:"
    INDEX 01 01:45:29
  TRACK 61 AUDIO
    TITLE "3:cjc173_0240"
    INDEX 01 01:45:74
  TRACK 62 AUDIO
    TITLE "0:"
    INDEX 01 01:47:39
  TRACK 63 AUDIO
    TITLE "4:cjc173_0241"
    INDEX 01 01:47:63
  TRACK 64 AUDIO
    TITLE "0:"
    INDEX 01 01:49:60
  TRACK 65 AUDIO
    TITLE "5:cjc173_0242"
    INDEX 01 01:50:06
  TRACK 66 AUDIO
    TITLE "0:"
    INDEX 01 01:54:42
  TRACK 67 AUDIO
    TITLE "3:cjc173_0243"
    INDEX 01 01:55:12
  TRACK 68 AUDIO
    TITLE "0:"
    INDEX 01 01:56:38
  TRACK 69 AUDIO
    TITLE "4:cjc173_0244"
    INDEX 01 01:56:60
  TRACK 70 AUDIO
    TITLE "0:"
    INDEX 01 01:59:64
  TRACK 71 AUDIO
    TITLE "5:cjc173_0245"
    INDEX 01 02:00:09
  TRACK 72 AUDIO
    TITLE "0:"
    INDEX 01 02:04:71
  TRACK 73 AUDIO
    TITLE "3:cjc173_0246"
    INDEX 01 02:05:41
  TRACK 74 AUDIO
    TITLE "0:"
    INDEX 01 02:07:32
  TRACK 75 AUDIO
    TITLE "4:cjc173_0247"
    INDEX 01 02:07:52
  TRACK 76 AUDIO
    TITLE "0:"
    INDEX 01 02:11:24
  TRACK 77 AUDIO
    TITLE "5:cjc173_0248"
    INDEX 01 02:11:44
  TRACK 78 AUDIO
    TITLE "0:"
    INDEX 01 02:17:11
  TRACK 79 AUDIO
    TITLE "3:cjc173_0249"
    INDEX 01 02:17:56
  TRACK 80 AUDIO
    TITLE "0:"
    INDEX 01 02:19:34
  TRACK 81 AUDIO
    TITLE "4:cjc173_0250"
    INDEX 01 02:19:53
  TRACK 82 AUDIO
    TITLE "0:"
    INDEX 01 02:24:72
  TRACK 83 AUDIO
    TITLE "5:cjc173_0251"
    INDEX 01 02:25:17
  TRACK 84 AUDIO
    TITLE "0:"
    INDEX 01 02:28:33
